# xmcd
#
# Track frame offsets:
#	150
#	20369
#	42485
#	59044
#	79723
#	98301
#	118357
#	137649
#	153717
#
# Disc length: 2335 seconds
#
# Revision: 1
# Processed by: cddbd v1.5.2PL0 Copyright (c) Steve Scherf et al.
# Submitted via: audiograbber 1.83.01
#
DISCID=76091d09
DTITLE=Manimal - The Darkest Room
DYEAR=2009
DGENRE=Metal
TTITLE0=Shadows
TTITLE1=The Darkest Room
TTITLE2=Living Dead
TTITLE3=I Am
TTITLE4=Ordinary Man
TTITLE5=Human Nature
TTITLE6=Spinegrinder
TTITLE7=Dreamers And Fools
TTITLE8=The Life We Lived
EXTD=
EXTT0=
EXTT1=
EXTT2=
EXTT3=
EXTT4=
EXTT5=
EXTT6=
EXTT7=
EXTT8=
PLAYORDER=
